<svg xmlns="http://www.w3.org/2000/svg" viewBox="0 0 23.98 23.98"><defs><style>.cls-1,.cls-2{fill:#4c76be;}.cls-2{fill-rule:evenodd;}</style></defs><title>資產 1</title><g id="圖層_2" data-name="圖層 2"><g id="Layer_1" data-name="Layer 1"><path class="cls-1" d="M23.39,8.28A12,12,0,1,1,12,0,12,12,0,0,1,23.39,8.28ZM12,1.08A10.91,10.91,0,1,0,22.36,8.62,10.91,10.91,0,0,0,12,1.08Z"/><path class="cls-2" d="M13.62,8.54h1.11V6.85a4.93,4.93,0,0,0-.54,0c-.33,0-.67,0-1,0a2.45,2.45,0,0,0-1.41.44,2.08,2.08,0,0,0-.85,1.41,4.49,4.49,0,0,0-.06.73c0,.38,0,.76,0,1.14v.14H9.25v1.89h1.61v4.75h2V12.53h1.61l.24-1.9H12.81s0-.94,0-1.35S13.17,8.56,13.62,8.54Z"/></g></g></svg>