<svg xmlns="http://www.w3.org/2000/svg" viewBox="0 0 23.98 23.98"><defs><style>.cls-1,.cls-2{fill:#fd3832;}.cls-2{fill-rule:evenodd;}</style></defs><title>資產 2</title><g id="圖層_2" data-name="圖層 2"><g id="Layer_1" data-name="Layer 1"><path class="cls-1" d="M23.39,8.28A12,12,0,1,1,12,0,12,12,0,0,1,23.39,8.28ZM12,1.08A10.91,10.91,0,1,0,22.36,8.62,10.91,10.91,0,0,0,12,1.08Z"/><path class="cls-2" d="M8,15.34a1.17,1.17,0,0,1-.78-.75c-.34-.93-.44-4.82.21-5.59a1.28,1.28,0,0,1,.85-.45,47.93,47.93,0,0,1,7.8.06,1.23,1.23,0,0,1,.77.74,12.21,12.21,0,0,1-.05,5.38,1.24,1.24,0,0,1-.55.56C15.55,15.63,8.81,15.63,8,15.34Zm2.79-1.82,3.16-1.64-3.16-1.64Z"/></g></g></svg>