<svg xmlns="http://www.w3.org/2000/svg" viewBox="0 0 23.98 23.98"><defs><style>.cls-1,.cls-2{fill:#7c5641;}.cls-2{fill-rule:evenodd;}</style></defs><title>資產 3</title><g id="圖層_2" data-name="圖層 2"><g id="Layer_1" data-name="Layer 1"><path class="cls-1" d="M23.39,8.28A12,12,0,1,1,12,0,12,12,0,0,1,23.39,8.28ZM12,1.08A10.91,10.91,0,1,0,22.36,8.62,10.91,10.91,0,0,0,12,1.08Z"/><path class="cls-2" d="M15.05,7.53H8.92A1.4,1.4,0,0,0,7.53,8.92v6.13a1.4,1.4,0,0,0,1.39,1.4h6.13a1.4,1.4,0,0,0,1.4-1.4V8.92A1.4,1.4,0,0,0,15.05,7.53ZM13.9,8.76a.25.25,0,0,1,.25-.25h1.07a.25.25,0,0,1,.25.25V9.84a.25.25,0,0,1-.25.25H14.15a.25.25,0,0,1-.25-.25Zm-3.55,2.58a1.75,1.75,0,1,1-.13.65A1.76,1.76,0,0,1,10.35,11.34Zm5.15,3.71a.45.45,0,0,1-.45.45H8.92a.45.45,0,0,1-.44-.45V11.34h.88a2.82,2.82,0,0,0-.08.65,2.71,2.71,0,1,0,5.42,0,2.82,2.82,0,0,0-.08-.65h.88Z"/></g></g></svg>